<svg width="228" height="288" viewBox="0 0 228 288" fill="none" xmlns="http://www.w3.org/2000/svg">
<path d="M189.141 175.219C174.656 194.484 151.594 211.359 122.062 211.359C93.2344 211.359 71.5781 198.984 57.0938 180.422C49.7812 171.141 44.2969 160.875 40.6406 149.625C36.9844 138.375 35.1562 127.266 35.1562 116.156C35.1562 105.047 37.125 93.9375 40.9219 82.6875C44.7188 71.4375 50.3438 61.1719 57.7969 51.75C72.5625 33.1875 94.3594 20.8125 122.062 20.8125C152.438 20.8125 174.797 37.125 189.141 55.9688V37.9688C170.719 24.4688 147.375 12.9375 122.062 12.9375C92.25 12.9375 65.3906 24.75 45.7031 43.875C26.0156 63 14.0625 88.5938 14.0625 116.156C14.0625 143.719 26.0156 169.312 45.7031 188.438C65.3906 207.703 92.25 219.516 122.062 219.516C147.375 219.516 170.719 207.703 189.141 194.344V175.219Z" fill="#719F2A"/>
<path d="M189.141 175.219H190.141V172.225L188.341 174.618L189.141 175.219ZM57.0938 180.422L57.8821 179.807L57.8792 179.803L57.0938 180.422ZM57.7969 51.75L57.0143 51.1275L57.0126 51.1296L57.7969 51.75ZM189.141 55.9688L188.345 56.5744L190.141 58.9335V55.9688H189.141ZM189.141 37.9688H190.141V37.4618L189.732 37.1621L189.141 37.9688ZM45.7031 188.438L46.4025 187.723L46.3999 187.72L45.7031 188.438ZM189.141 194.344L189.728 195.153L190.141 194.854V194.344H189.141ZM188.341 174.618C173.98 193.719 151.184 210.359 122.062 210.359V212.359C152.003 212.359 175.332 195.249 189.94 175.82L188.341 174.618ZM122.062 210.359C93.5565 210.359 72.1858 198.138 57.8821 179.807L56.3054 181.037C70.9704 199.831 92.9123 212.359 122.062 212.359V210.359ZM57.8792 179.803C50.6399 170.615 45.2115 160.454 41.5917 149.316L39.6896 149.934C43.3823 161.296 48.9226 171.667 56.3083 181.041L57.8792 179.803ZM41.5917 149.316C37.9655 138.159 36.1562 127.153 36.1562 116.156H34.1562C34.1562 127.378 36.0032 138.591 39.6896 149.934L41.5917 149.316ZM36.1562 116.156C36.1562 105.167 38.1032 94.1661 41.8694 83.0073L39.9744 82.3677C36.1468 93.7089 34.1562 104.926 34.1562 116.156H36.1562ZM41.8694 83.0073C45.6285 71.8692 51.1972 61.7048 58.5812 52.3704L57.0126 51.1296C49.4903 60.6389 43.809 71.0058 39.9744 82.3677L41.8694 83.0073ZM58.5795 52.3725C73.1712 34.0287 94.6886 21.8125 122.062 21.8125V19.8125C94.0301 19.8125 71.9538 32.3463 57.0143 51.1275L58.5795 52.3725ZM122.062 21.8125C152.039 21.8125 174.131 37.9011 188.345 56.5744L189.936 55.3631C175.463 36.3489 152.836 19.8125 122.062 19.8125V21.8125ZM190.141 55.9688V37.9688H188.141V55.9688H190.141ZM189.732 37.1621C171.223 23.5987 147.673 11.9375 122.062 11.9375V13.9375C147.077 13.9375 170.214 25.3388 188.55 38.7754L189.732 37.1621ZM122.062 11.9375C91.9795 11.9375 64.873 23.8587 45.0063 43.1577L46.3999 44.5923C65.9083 25.6413 92.5205 13.9375 122.062 13.9375V11.9375ZM45.0063 43.1577C25.1453 62.4513 13.0625 88.2965 13.0625 116.156H15.0625C15.0625 88.891 26.886 63.5487 46.3999 44.5923L45.0063 43.1577ZM13.0625 116.156C13.0625 144.016 25.1453 169.861 45.0063 189.155L46.3999 187.72C26.886 168.764 15.0625 143.422 15.0625 116.156H13.0625ZM45.0037 189.152C64.8713 208.594 91.9792 220.516 122.062 220.516V218.516C92.5208 218.516 65.9099 206.812 46.4025 187.723L45.0037 189.152ZM122.062 220.516C147.678 220.516 171.229 208.568 189.728 195.153L188.554 193.534C170.208 206.838 147.072 218.516 122.062 218.516V220.516ZM190.141 194.344V175.219H188.141V194.344H190.141Z" fill="black" fill-opacity="0.25"/>
<path d="M173.25 69.75C160 69.75 148.062 75 139.312 83.5C130.562 92 125.25 103.375 125.25 115.625C125.25 127.875 130.562 139.25 139.312 147.75C148.062 156.312 160 161.562 173.25 161.562C186.5 161.562 198.438 156.312 207.188 147.75C215.938 139.25 221.25 127.875 221.25 115.625C221.25 103.375 215.938 92 207.188 83.5C198.438 75 186.5 69.75 173.25 69.75ZM173.25 157.938C160.438 157.938 150.812 152.438 144.375 144.188C141.125 140.062 138.688 135.5 137.062 130.5C135.438 125.5 134.625 120.562 134.625 115.625C134.625 110.688 135.5 105.75 137.188 100.75C138.875 95.75 141.375 91.1875 144.688 87C151.25 78.75 160.938 73.25 173.25 73.25C186.188 73.25 195.812 78.75 202.25 87C208.688 95.3125 211.875 105.812 211.875 115.625C211.875 120.562 211.062 125.5 209.375 130.5C207.688 135.5 205.188 140.062 201.938 144.188C195.375 152.438 185.75 157.938 173.25 157.938Z" fill="#719F2A"/>
<path d="M139.312 147.75L140.012 147.035L140.009 147.033L139.312 147.75ZM207.188 147.75L206.491 147.033L206.488 147.035L207.188 147.75ZM144.375 144.188L145.163 143.572L145.16 143.569L144.375 144.188ZM144.688 87L143.905 86.3775L143.903 86.3796L144.688 87ZM202.25 87L203.041 86.3877L203.038 86.3848L202.25 87ZM201.938 144.188L202.72 144.81L202.723 144.806L201.938 144.188ZM173.25 68.75C159.73 68.75 147.545 74.1087 138.616 82.7827L140.009 84.2173C148.58 75.8913 160.27 70.75 173.25 70.75V68.75ZM138.616 82.7827C129.692 91.4513 124.25 103.078 124.25 115.625H126.25C126.25 103.672 131.433 92.5487 140.009 84.2173L138.616 82.7827ZM124.25 115.625C124.25 128.172 129.692 139.799 138.616 148.467L140.009 147.033C131.433 138.701 126.25 127.578 126.25 115.625H124.25ZM138.613 148.465C147.543 157.203 159.729 162.562 173.25 162.562V160.562C160.271 160.562 148.582 155.422 140.012 147.035L138.613 148.465ZM173.25 162.562C186.771 162.562 198.957 157.203 207.887 148.465L206.488 147.035C197.918 155.422 186.229 160.562 173.25 160.562V162.562ZM207.884 148.467C216.808 139.799 222.25 128.172 222.25 115.625H220.25C220.25 127.578 215.067 138.701 206.491 147.033L207.884 148.467ZM222.25 115.625C222.25 103.078 216.808 91.4513 207.884 82.7827L206.491 84.2173C215.067 92.5487 220.25 103.672 220.25 115.625H222.25ZM207.884 82.7827C198.955 74.1087 186.77 68.75 173.25 68.75V70.75C186.23 70.75 197.92 75.8913 206.491 84.2173L207.884 82.7827ZM173.25 156.938C160.76 156.938 151.42 151.591 145.163 143.572L143.587 144.803C150.205 153.284 160.115 158.938 173.25 158.938V156.938ZM145.16 143.569C141.984 139.536 139.602 135.079 138.014 130.191L136.111 130.809C137.773 135.921 140.266 140.589 143.59 144.806L145.16 143.569ZM138.014 130.191C136.419 125.284 135.625 120.45 135.625 115.625H133.625C133.625 120.675 134.456 125.716 136.111 130.809L138.014 130.191ZM135.625 115.625C135.625 110.808 136.478 105.979 138.135 101.07L136.24 100.43C134.522 105.521 133.625 110.567 133.625 115.625H135.625ZM138.135 101.07C139.785 96.1817 142.228 91.7204 145.472 87.6204L143.903 86.3796C140.522 90.6546 137.965 95.3183 136.24 100.43L138.135 101.07ZM145.47 87.6225C151.859 79.5912 161.267 74.25 173.25 74.25V72.25C160.608 72.25 150.641 77.9088 143.905 86.3775L145.47 87.6225ZM173.25 74.25C185.867 74.25 195.206 79.5983 201.462 87.6152L203.038 86.3848C196.419 77.9017 186.508 72.25 173.25 72.25V74.25ZM201.459 87.6123C207.75 95.7353 210.875 106.015 210.875 115.625H212.875C212.875 105.61 209.625 94.8897 203.041 86.3877L201.459 87.6123ZM210.875 115.625C210.875 120.45 210.082 125.279 208.428 130.18L210.322 130.82C212.043 125.721 212.875 120.675 212.875 115.625H210.875ZM208.428 130.18C206.777 135.069 204.333 139.531 201.152 143.569L202.723 144.806C206.042 140.594 208.598 135.931 210.322 130.82L208.428 130.18ZM201.155 143.565C194.767 151.596 185.422 156.938 173.25 156.938V158.938C186.078 158.938 195.983 153.279 202.72 144.81L201.155 143.565Z" fill="black" fill-opacity="0.25"/>
</svg>
